<?xml version="1.0" encoding="utf-8"?>
<!-- Svg Vector Icons : http://www.onlinewebfonts.com/icon -->
<!DOCTYPE svg PUBLIC "-//W3C//DTD SVG 1.1//EN" "http://www.w3.org/Graphics/SVG/1.1/DTD/svg11.dtd">
<svg version="1.1" xmlns="http://www.w3.org/2000/svg" xmlns:xlink="http://www.w3.org/1999/xlink" x="0px" y="0px" viewBox="0 0 1000 1000" enable-background="new 0 0 1000 1000" xml:space="preserve">
<metadata> Svg Vector Icons : http://www.onlinewebfonts.com/icon </metadata>
<g><path d="M937.2,249.7c14,11.3,26.3,22.8,36.9,34.4c10.6,11.6,16,23.1,16,34.4c0,12.6-4.8,22.9-14.5,30.9c-9.6,8-21.4,16.9-35.4,26.9c-21.3,16-43.7,32.7-67.3,50.3c-23.6,17.6-46,34.2-67.3,49.8c-21.3,15.6-40,29.2-56.3,40.9s-27.7,19.4-34.4,23.4c-21.9,13.3-38.9,18.1-50.8,14.5c-12-3.7-19.6-10.8-22.9-21.4V418.2h-4c-50.5,0-94.7,5.5-132.6,16.4c-37.9,11-71.1,27.6-99.7,49.8c-28.6,22.3-53.5,49.8-74.8,82.7c-21.3,32.9-40.5,71-57.8,114.2c-2-1.3-4-5-6-11c-1.3-5.3-2.5-13-3.5-22.9c-1-10-1.5-23.9-1.5-41.9c0-55.8,8.5-108,25.4-156.5c16.9-48.5,41.2-90.9,72.8-127.1c31.6-36.2,69.8-64.6,114.6-85.2c44.9-20.6,95.2-30.6,151-29.9c3.3,0,6.1,0.2,8.5,0.5c2.3,0.3,5.2,0.5,8.5,0.5l-1-104.7c1.3-18.6,9-32.1,22.9-40.4s31.6-4.8,52.8,10.5c6.6,5.3,18.8,15,36.4,28.9s37.4,29.6,59.3,46.9s44.2,35.1,66.8,53.3S921.2,236.4,937.2,249.7L937.2,249.7z M770.7,624.6c21.9,0,37.4,6.1,46.4,18.4s13.5,30.1,13.5,53.3v130.6c0,33.2-9.6,60.8-28.9,82.7s-44.9,32.6-76.8,31.9l-597.2-4c-14.6,0-28.9-3-42.9-9c-14-6-26.4-14.5-37.4-25.4c-11-11-19.9-24.1-26.9-39.4C13.5,848.5,10,831.3,10,812V234.7c0-32.6,9.8-59.8,29.4-81.7c19.6-21.9,47-32.6,82.2-31.9l202.4,2c7.3,0,15,0.8,22.9,2.5c8,1.7,15.1,4.8,21.4,9.5c6.3,4.7,11.6,10.8,16,18.4c4.3,7.6,6.5,17.4,6.5,29.4c0,11.3-2.3,20.8-7,28.4c-4.7,7.6-10.8,14-18.4,18.9c-7.6,5-16,8.6-24.9,11c-9,2.3-17.8,3.5-26.4,3.5l-95.7-1c-25.9,0-46.2,8.1-60.8,24.4c-14.6,16.3-21.9,36.4-21.9,60.3v394.8c0,14,2.5,26.6,7.5,37.9c5,11.3,11.6,20.8,19.9,28.4c8.3,7.6,17.6,13.6,27.9,17.9c10.3,4.3,20.8,6.5,31.4,6.5l406.8,4c23.3,0.7,41.7-7,55.3-22.9c13.6-16,20.4-36.2,20.4-60.8v-42.9c0-20.6,6.1-36.9,18.4-48.9C735.6,630.5,751.4,624.6,770.7,624.6L770.7,624.6z" fill="#3498db"/></g>
</svg>